<svg width="16" height="24" viewBox="0 0 16 24" fill="none" xmlns="http://www.w3.org/2000/svg">
<path fill-rule="evenodd" clip-rule="evenodd" d="M0 8C0 3.58172 3.58172 0 8 0C12.4183 0 16 3.58172 16 8C16 11.8893 14.0269 14.3807 12.2526 16.4085C12.0969 16.5864 11.9443 16.7592 11.7951 16.928C11.0732 17.7449 10.4329 18.4695 9.9298 19.2362C9.34244 20.1312 9 21.0044 9 22V23C9 23.5523 8.55228 24 8 24C7.44772 24 7 23.5523 7 23V22C7 21.0044 6.65756 20.1312 6.0702 19.2362C5.5671 18.4695 4.92682 17.7449 4.20492 16.928C4.05574 16.7592 3.90308 16.5864 3.74742 16.4085C1.97313 14.3807 0 11.8893 0 8ZM8 18.5526C8.08258 18.4123 8.16869 18.2745 8.2577 18.1388C8.84707 17.2408 9.60239 16.3872 10.3255 15.5701C10.4679 15.4092 10.609 15.2497 10.7474 15.0915C12.4731 13.1193 14 11.1107 14 8C14 4.68629 11.3137 2 8 2C4.68629 2 2 4.68629 2 8C2 11.1107 3.52687 13.1193 5.25258 15.0915C5.39097 15.2497 5.53212 15.4092 5.67453 15.5701C6.39761 16.3872 7.15293 17.2408 7.7423 18.1388C7.83131 18.2745 7.91742 18.4123 8 18.5526ZM8 7C7.44772 7 7 7.44772 7 8C7 8.55228 7.44772 9 8 9C8.55228 9 9 8.55228 9 8C9 7.44772 8.55228 7 8 7ZM5 8C5 6.34315 6.34315 5 8 5C9.65685 5 11 6.34315 11 8C11 9.65685 9.65685 11 8 11C6.34315 11 5 9.65685 5 8Z" fill="#B1AFAA"/>
</svg>
