<svg width="22" height="21" viewBox="0 0 22 21" fill="none" xmlns="http://www.w3.org/2000/svg">
<path fill-rule="evenodd" clip-rule="evenodd" d="M0 1C0 0.447715 0.447715 0 1 0H3.4914C4.83084 0 6.008 0.887932 6.37597 2.17584L6.89716 4H18.9384C20.8902 4 22.3222 5.83417 21.8489 7.72761L20.3489 13.7276C20.015 15.0631 18.8151 16 17.4384 16H10.5086C9.16916 16 7.992 15.1121 7.62403 13.8242L4.45292 2.72528C4.33026 2.29598 3.93788 2 3.4914 2H1C0.447715 2 0 1.55228 0 1ZM7.46859 6L9.54708 13.2747C9.66974 13.704 10.0621 14 10.5086 14H17.4384C17.8973 14 18.2973 13.6877 18.4086 13.2425L19.9086 7.24253C20.0664 6.61139 19.589 6 18.9384 6H7.46859Z" fill="white"/>
<path d="M12 19.5C12 20.3284 11.3284 21 10.5 21C9.67157 21 9 20.3284 9 19.5C9 18.6716 9.67157 18 10.5 18C11.3284 18 12 18.6716 12 19.5Z" fill="white"/>
<path d="M19 19.5C19 20.3284 18.3284 21 17.5 21C16.6716 21 16 20.3284 16 19.5C16 18.6716 16.6716 18 17.5 18C18.3284 18 19 18.6716 19 19.5Z" fill="white"/>
</svg>
