<svg width="24" height="23" viewBox="0 0 24 23" fill="none" xmlns="http://www.w3.org/2000/svg">
<path fill-rule="evenodd" clip-rule="evenodd" d="M21.1568 3.39848C21.5068 2.57127 20.6734 1.7379 19.8462 2.08788L3.46966 9.01641C2.60871 9.38066 2.67381 10.6219 3.56814 10.8941L8.7707 12.4774C8.9155 12.5215 9.05556 12.5761 9.18998 12.6403L14.2927 7.53754C14.6832 7.14702 15.3164 7.14702 15.7069 7.53754C16.0974 7.92806 16.0974 8.56123 15.7069 8.95175L10.6043 14.0544C10.6685 14.1889 10.7231 14.3291 10.7672 14.474L12.3506 19.6765C12.6228 20.5709 13.864 20.636 14.2283 19.775L21.1568 3.39848ZM19.0669 0.245942C21.5485 -0.803977 24.0486 1.69614 22.9987 4.17776L16.0702 20.5543C14.9775 23.1371 11.2538 22.9418 10.4373 20.2589L8.85389 15.0563C8.80534 14.8968 8.71878 14.7548 8.60426 14.6403C8.48979 14.5258 8.34782 14.4393 8.18837 14.3908L2.98581 12.8074C0.302836 11.9908 0.107539 8.26721 2.69038 7.17448L19.0669 0.245942L19.4553 1.16395L19.0669 0.245942Z" fill="#FFCD1C"/>
</svg>
