<svg width="22" height="22" viewBox="0 0 22 22" fill="none" xmlns="http://www.w3.org/2000/svg">
<path fill-rule="evenodd" clip-rule="evenodd" d="M3.00001 2C2.41812 2 2.04953 2.45395 2.09361 2.89854C2.98361 11.8754 10.1247 19.0164 19.1015 19.9064C19.5461 19.9505 20 19.5819 20 19V15.4415C20 15.0111 19.7246 14.6289 19.3162 14.4928L15.8564 13.3396C15.4971 13.2198 15.1009 13.3133 14.8331 13.5811L14.2793 14.1349C13.6167 14.7976 12.5612 14.9243 11.7615 14.3773C9.87035 13.0836 8.76902 11.9895 7.59441 10.2209C7.06334 9.42133 7.20243 8.38337 7.85311 7.73269L8.41887 7.16693C8.68671 6.89909 8.78023 6.50292 8.66045 6.14359L7.50718 2.68377C7.37106 2.27543 6.98892 2 6.55849 2H3.00001ZM0.103364 3.09586C-0.0705134 1.34208 1.37276 0 3.00001 0H6.55849C7.84979 0 8.9962 0.826291 9.40454 2.05132L10.5578 5.51113C10.9172 6.58914 10.6366 7.77764 9.83309 8.58114L9.27616 9.13806C10.2859 10.6536 11.1943 11.564 12.872 12.7138L13.4189 12.1669C14.2224 11.3634 15.4109 11.0829 16.4889 11.4422L19.9487 12.5955C21.1737 13.0038 22 14.1502 22 15.4415V19C22 20.6273 20.6579 22.0705 18.9042 21.8966C8.97881 20.9126 1.08741 13.0212 0.103364 3.09586Z" fill="#B1AFAA"/>
</svg>
