<svg width="18" height="15" viewBox="0 0 18 15" fill="none" xmlns="http://www.w3.org/2000/svg">
<path fill-rule="evenodd" clip-rule="evenodd" d="M15.9295 2.39205C17.2207 1.39474 17.5497 0.275573 17.5497 0.275573C17.4008 0.368368 15.9452 0.995438 15.1209 1.19696C14.5502 0.50428 13.7865 0 12.42 0C9.00321 0 8.4261 3.5787 8.81942 4.60039C4.7603 4.59851 1.88942 1.43317 1.25992 0.733925C-0.110277 2.83166 1.43636 5.22371 2.25057 5.70456C2.25057 5.70456 1.22224 5.66519 0.719555 5.24527C0.665335 7.83884 2.64574 8.72274 3.59963 9.10985C3.14933 9.29357 2.32226 9.18297 1.9804 9.10985C2.80839 11.41 4.73457 11.7034 5.39991 11.7794C2.88007 13.8396 0 13.251 0 13.251C1.36928 14.4029 3.52795 15 5.58095 15C13.0679 15 16.3275 8.50247 16.2006 3.68087C17.4302 2.83634 18 1.74811 18 1.74811C17.8052 1.94682 16.3955 2.26832 15.9295 2.39205Z" fill="#55ACEE"/>
</svg>
