<svg width="23" height="15" viewBox="0 0 23 15" fill="none" xmlns="http://www.w3.org/2000/svg">
<path fill-rule="evenodd" clip-rule="evenodd" d="M20.4991 0.458823C21.4843 0.705882 22.261 1.42941 22.5263 2.34706C23.0188 4.02353 22.9999 7.51765 22.9999 7.51765C22.9999 7.51765 22.9999 10.9941 22.5263 12.6706C22.261 13.5883 21.4843 14.3117 20.4991 14.5588C18.6993 15 11.5 15 11.5 15C11.5 15 4.31959 15 2.50081 14.5412C1.51564 14.2941 0.738878 13.5706 0.473635 12.6529C0 10.9941 0 7.5 0 7.5C0 7.5 0 4.02353 0.473635 2.34706C0.738878 1.42941 1.53459 0.688235 2.50081 0.441177C4.30064 0 11.5 0 11.5 0C11.5 0 18.6993 0 20.4991 0.458823ZM9.2076 4.33715L15.1944 7.58535L9.2076 10.8336V4.33715Z" fill="#303030"/>
</svg>
